# xmcd
#
# Track frame offsets: 
#        150
#        23570
#        47845
#        67140
#        84621
#        105569
#        121301
#        146410
#        164687
#        185350
#        204167
#        224516
#
# Disc length: 3370 seconds
#
# Revision: 0
# Processed by: cddbd v1.5.1PL2 Copyright (c) Steve Scherf et al.
# Submitted via: ExactAudioCopy v0.95b4
#
DISCID=ab0d280c
DTITLE=BB Chung King and The Buddaheads - Go for broke
DYEAR=2000
DGENRE=Bluesrock
TTITLE0=Long Way Down
TTITLE1=Rise Above It
TTITLE2=Still the Rain
TTITLE3=Nothing to Lose
TTITLE4=Hear it from You
TTITLE5=Little Girl
TTITLE6=Every Now and Then
TTITLE7=Enough is Enough
TTITLE8=Justeen
TTITLE9=Mean Streak
TTITLE10=Company Graveyard
TTITLE11=When the Blues Catch Up with You
EXTD=
EXTT0=
EXTT1=
EXTT2=
EXTT3=
EXTT4=
EXTT5=
EXTT6=
EXTT7=
EXTT8=
EXTT9=
EXTT10=
EXTT11=
PLAYORDER=
